ply
format ascii 1.0
comment VCGLIB generated
element vertex 24
property float x
property float y
property float z
property float nx
property float ny
property float nz
element face 12
property list uchar int vertex_indices
end_header
799.9999 -799.9998 99.99986 1.311342e-07 -4.371138e-08 1 
-799.9999 799.9998 100.0001 1.311342e-07 -4.371138e-08 1 
-799.9999 -799.9998 100 1.311342e-07 -4.371138e-08 1 
799.9999 799.9998 99.99992 3.821371e-15 0.9999999 4.371139e-08 
-799.9999 799.9998 -99.99986 3.821371e-15 0.9999999 4.371139e-08 
-799.9999 799.9998 100.0001 3.821371e-15 0.9999999 4.371139e-08 
799.9999 799.9998 -100 -1.311342e-07 4.371138e-08 -1 
-799.9999 -799.9998 -99.99992 -1.311342e-07 4.371138e-08 -1 
-799.9999 799.9998 -99.99986 -1.311342e-07 4.371138e-08 -1 
799.9999 -799.9998 -100.0001 -3.821371e-15 -0.9999999 -4.371139e-08 
-799.9999 -799.9998 100 -3.821371e-15 -0.9999999 -4.371139e-08 
-799.9999 -799.9998 -99.99992 -3.821371e-15 -0.9999999 -4.371139e-08 
-799.9999 799.9998 -99.99986 -1 -1.910685e-15 1.311342e-07 
-799.9999 -799.9998 100 -1 -1.910685e-15 1.311342e-07 
-799.9999 799.9998 100.0001 -1 -1.910685e-15 1.311342e-07 
799.9999 799.9998 99.99992 1 1.910685e-15 -1.311342e-07 
799.9999 -799.9998 -100.0001 1 1.910685e-15 -1.311342e-07 
799.9999 799.9998 -100 1 1.910685e-15 -1.311342e-07 
799.9999 799.9998 99.99992 1.311342e-07 -4.371138e-08 1 
799.9999 799.9998 -100 3.821371e-15 0.9999999 4.371139e-08 
799.9999 -799.9998 -100.0001 -1.311342e-07 4.371138e-08 -1 
799.9999 -799.9998 99.99986 -3.821371e-15 -0.9999999 -4.371139e-08 
-799.9999 -799.9998 -99.99992 -1 -1.910685e-15 1.311342e-07 
799.9999 -799.9998 99.99986 1 1.910685e-15 -1.311342e-07 
3 0 1 2 
3 3 4 5 
3 6 7 8 
3 9 10 11 
3 12 13 14 
3 15 16 17 
3 0 18 1 
3 3 19 4 
3 6 20 7 
3 9 21 10 
3 12 22 13 
3 15 23 16 
