ply
format ascii 1.0
comment VCGLIB generated
element vertex 150
property float x
property float y
property float z
property float nx
property float ny
property float nz
element face 192
property list uchar int vertex_indices
end_header
-92.61946 140.3325 122.6653 -1.290052 0 0 
-92.61946 280.665 70.69025 -1.290052 0 0 
-92.61946 140.3325 70.69025 -1.290052 0 0 
46.30973 280.665 122.6653 0 3.909248 0 
92.61946 280.665 70.69025 0 3.909248 0 
46.30973 280.665 70.69025 0 3.909248 0 
92.61946 -140.3325 122.6653 1.290052 0 0 
92.61946 -280.665 70.69025 1.290052 0 0 
92.61946 -140.3325 70.69025 1.290052 0 0 
-46.30973 -280.665 122.6653 0 -3.909248 0 
-92.61946 -280.665 70.69025 0 -3.909248 0 
-46.30973 -280.665 70.69025 0 -3.909248 0 
92.61946 -140.3325 -85.23475 0 0 -1.447869 
46.30973 -280.665 -85.23475 0 0 -1.447869 
46.30973 -140.3325 -85.23475 0 0 -1.447869 
-92.61946 -140.3325 122.6653 0 0 1.447869 
-46.30973 -280.665 122.6653 0 0 1.447869 
-46.30973 -140.3325 122.6653 0 0 1.447869 
0 -140.3325 122.6653 0 0 1.447869 
46.30973 -280.665 122.6653 0 0 1.447869 
46.30973 -140.3325 122.6653 0 0 1.447869 
0 140.3325 122.6653 0 0 1.447869 
46.30973 0 122.6653 0 0 1.447869 
46.30973 140.3325 122.6653 0 0 1.447869 
-92.61946 140.3325 122.6653 0 0 1.447869 
-46.30973 0 122.6653 0 0 1.447869 
-46.30973 140.3325 122.6653 0 0 1.447869 
0 -140.3325 -85.23475 0 0 -1.447869 
-46.30973 -280.665 -85.23475 0 0 -1.447869 
-46.30973 -140.3325 -85.23475 0 0 -1.447869 
0 140.3325 -85.23475 0 0 -1.447869 
-46.30973 0 -85.23475 0 0 -1.447869 
-46.30973 140.3325 -85.23475 0 0 -1.447869 
92.61946 140.3325 -85.23475 0 0 -1.447869 
46.30973 0 -85.23475 0 0 -1.447869 
46.30973 140.3325 -85.23475 0 0 -1.447869 
-46.30973 -280.665 18.71527 0 -3.909248 0 
-92.61946 -280.665 -33.25974 0 -3.909248 0 
-46.30973 -280.665 -33.25974 0 -3.909248 0 
46.30973 -280.665 18.71527 0 -3.909248 0 
0 -280.665 -33.25974 0 -3.909248 0 
46.30973 -280.665 -33.25974 0 -3.909248 0 
46.30973 -280.665 122.6653 0 -3.909248 0 
0 -280.665 70.69025 0 -3.909248 0 
46.30973 -280.665 70.69025 0 -3.909248 0 
92.61946 -140.3325 18.71527 1.290052 0 0 
92.61946 -280.665 -33.25974 1.290052 0 0 
92.61946 -140.3325 -33.25974 1.290052 0 0 
92.61946 140.3325 18.71527 1.290052 0 0 
92.61946 0 -33.25974 1.290052 0 0 
92.61946 140.3325 -33.25974 1.290052 0 0 
92.61946 140.3325 122.6653 1.290052 0 0 
92.61946 0 70.69025 1.290052 0 0 
92.61946 140.3325 70.69025 1.290052 0 0 
46.30973 280.665 18.71527 0 3.909248 0 
92.61946 280.665 -33.25974 0 3.909248 0 
46.30973 280.665 -33.25974 0 3.909248 0 
-46.30973 280.665 18.71527 0 3.909248 0 
0 280.665 -33.25974 0 3.909248 0 
-46.30973 280.665 -33.25974 0 3.909248 0 
-46.30973 280.665 122.6653 0 3.909248 0 
0 280.665 70.69025 0 3.909248 0 
-46.30973 280.665 70.69025 0 3.909248 0 
-92.61946 140.3325 18.71527 -1.290052 0 0 
-92.61946 280.665 -33.25974 -1.290052 0 0 
-92.61946 140.3325 -33.25974 -1.290052 0 0 
-92.61946 -140.3325 18.71527 -1.290052 0 0 
-92.61946 0 -33.25974 -1.290052 0 0 
-92.61946 -140.3325 -33.25974 -1.290052 0 0 
-92.61946 -140.3325 122.6653 -1.290052 0 0 
-92.61946 0 70.69025 -1.290052 0 0 
-92.61946 -140.3325 70.69025 -1.290052 0 0 
-92.61946 0 18.71527 -1.290052 0 0 
-92.61946 -280.665 70.69025 -1.290052 0 0 
-92.61946 -280.665 18.71527 -1.290052 0 0 
-92.61946 -280.665 122.6653 -1.290052 0 0 
-92.61946 0 -85.23475 -1.290052 0 0 
-92.61946 -140.3325 -85.23475 -1.290052 0 0 
-92.61946 -280.665 -33.25974 -1.290052 0 0 
-92.61946 -280.665 -85.23475 -1.290052 0 0 
-92.61946 280.665 -85.23475 -1.290052 0 0 
-92.61946 140.3325 -85.23475 -1.290052 0 0 
0 280.665 18.71527 0 3.909248 0 
-92.61946 280.665 70.69025 0 3.909248 0 
-92.61946 280.665 18.71527 0 3.909248 0 
-92.61946 280.665 122.6653 0 3.909248 0 
0 280.665 -85.23475 0 3.909248 0 
-46.30973 280.665 -85.23475 0 3.909248 0 
-92.61946 280.665 -33.25974 0 3.909248 0 
-92.61946 280.665 -85.23475 0 3.909248 0 
92.61946 280.665 -85.23475 0 3.909248 0 
46.30973 280.665 -85.23475 0 3.909248 0 
92.61946 0 18.71527 1.290052 0 0 
92.61946 280.665 70.69025 1.290052 0 0 
92.61946 280.665 18.71527 1.290052 0 0 
92.61946 280.665 122.6653 1.290052 0 0 
92.61946 0 -85.23475 1.290052 0 0 
92.61946 140.3325 -85.23475 1.290052 0 0 
92.61946 280.665 -33.25974 1.290052 0 0 
92.61946 280.665 -85.23475 1.290052 0 0 
92.61946 -280.665 -85.23475 1.290052 0 0 
92.61946 -140.3325 -85.23475 1.290052 0 0 
0 -280.665 18.71527 0 -3.909248 0 
92.61946 -280.665 70.69025 0 -3.909248 0 
92.61946 -280.665 18.71527 0 -3.909248 0 
92.61946 -280.665 122.6653 0 -3.909248 0 
0 -280.665 -85.23475 0 -3.909248 0 
46.30973 -280.665 -85.23475 0 -3.909248 0 
92.61946 -280.665 -33.25974 0 -3.909248 0 
92.61946 -280.665 -85.23475 0 -3.909248 0 
-92.61946 -280.665 -85.23475 0 -3.909248 0 
-46.30973 -280.665 -85.23475 0 -3.909248 0 
0 0 -85.23475 0 0 -1.447869 
46.30973 280.665 -85.23475 0 0 -1.447869 
0 280.665 -85.23475 0 0 -1.447869 
92.61946 280.665 -85.23475 0 0 -1.447869 
-92.61946 0 -85.23475 0 0 -1.447869 
-92.61946 140.3325 -85.23475 0 0 -1.447869 
-46.30973 280.665 -85.23475 0 0 -1.447869 
-92.61946 280.665 -85.23475 0 0 -1.447869 
-92.61946 -280.665 -85.23475 0 0 -1.447869 
-92.61946 -140.3325 -85.23475 0 0 -1.447869 
0 0 122.6653 0 0 1.447869 
-46.30973 280.665 122.6653 0 0 1.447869 
0 280.665 122.6653 0 0 1.447869 
-92.61946 280.665 122.6653 0 0 1.447869 
92.61946 0 122.6653 0 0 1.447869 
92.61946 140.3325 122.6653 0 0 1.447869 
46.30973 280.665 122.6653 0 0 1.447869 
92.61946 280.665 122.6653 0 0 1.447869 
92.61946 -280.665 122.6653 0 0 1.447869 
92.61946 -140.3325 122.6653 0 0 1.447869 
0 -280.665 122.6653 0 0 1.447869 
-92.61946 0 122.6653 0 0 1.447869 
0 -280.665 -85.23475 0 0 -1.447869 
92.61946 0 -85.23475 0 0 -1.447869 
-92.61946 -280.665 18.71527 0 -3.909248 0 
0 -280.665 122.6653 0 -3.909248 0 
92.61946 -280.665 18.71527 1.290052 0 0 
92.61946 0 122.6653 1.290052 0 0 
92.61946 280.665 18.71527 0 3.909248 0 
0 280.665 122.6653 0 3.909248 0 
-92.61946 280.665 18.71527 -1.290052 0 0 
-92.61946 0 122.6653 -1.290052 0 0 
-92.61946 280.665 122.6653 -1.290052 0 0 
92.61946 280.665 122.6653 0 3.909248 0 
92.61946 -280.665 122.6653 1.290052 0 0 
-92.61946 -280.665 122.6653 0 -3.909248 0 
92.61946 -280.665 -85.23475 0 0 -1.447869 
-92.61946 -280.665 122.6653 0 0 1.447869 
3 0 1 2 
3 3 4 5 
3 6 7 8 
3 9 10 11 
3 12 13 14 
3 15 16 17 
3 18 19 20 
3 21 22 23 
3 24 25 26 
3 27 28 29 
3 30 31 32 
3 33 34 35 
3 36 37 38 
3 39 40 41 
3 42 43 44 
3 45 46 47 
3 48 49 50 
3 51 52 53 
3 54 55 56 
3 57 58 59 
3 60 61 62 
3 63 64 65 
3 66 67 68 
3 69 70 71 
3 71 72 66 
3 73 66 74 
3 75 71 73 
3 68 76 77 
3 78 77 79 
3 74 68 78 
3 65 80 81 
3 67 81 76 
3 72 65 67 
3 62 82 57 
3 83 57 84 
3 85 62 83 
3 59 86 87 
3 88 87 89 
3 84 59 88 
3 56 90 91 
3 58 91 86 
3 82 56 58 
3 53 92 48 
3 93 48 94 
3 95 53 93 
3 50 96 97 
3 98 97 99 
3 94 50 98 
3 47 100 101 
3 49 101 96 
3 92 47 49 
3 44 102 39 
3 103 39 104 
3 105 44 103 
3 41 106 107 
3 108 107 109 
3 104 41 108 
3 38 110 111 
3 40 111 106 
3 102 38 40 
3 35 112 30 
3 113 30 114 
3 115 35 113 
3 32 116 117 
3 118 117 119 
3 114 32 118 
3 29 120 121 
3 31 121 116 
3 112 29 31 
3 26 122 21 
3 123 21 124 
3 125 26 123 
3 23 126 127 
3 128 127 129 
3 124 23 128 
3 20 130 131 
3 22 131 126 
3 122 20 22 
3 17 132 18 
3 25 18 122 
3 133 17 25 
3 14 134 27 
3 34 27 112 
3 135 14 34 
3 11 136 36 
3 43 36 102 
3 137 11 43 
3 8 138 45 
3 52 45 92 
3 139 8 52 
3 5 140 54 
3 61 54 82 
3 141 5 61 
3 2 142 63 
3 70 63 72 
3 143 2 70 
3 0 144 1 
3 3 145 4 
3 6 146 7 
3 9 147 10 
3 12 148 13 
3 15 149 16 
3 18 132 19 
3 21 122 22 
3 24 133 25 
3 27 134 28 
3 30 112 31 
3 33 135 34 
3 36 136 37 
3 39 102 40 
3 42 137 43 
3 45 138 46 
3 48 92 49 
3 51 139 52 
3 54 140 55 
3 57 82 58 
3 60 141 61 
3 63 142 64 
3 66 72 67 
3 69 143 70 
3 71 70 72 
3 73 71 66 
3 75 69 71 
3 68 67 76 
3 78 68 77 
3 74 66 68 
3 65 64 80 
3 67 65 81 
3 72 63 65 
3 62 61 82 
3 83 62 57 
3 85 60 62 
3 59 58 86 
3 88 59 87 
3 84 57 59 
3 56 55 90 
3 58 56 91 
3 82 54 56 
3 53 52 92 
3 93 53 48 
3 95 51 53 
3 50 49 96 
3 98 50 97 
3 94 48 50 
3 47 46 100 
3 49 47 101 
3 92 45 47 
3 44 43 102 
3 103 44 39 
3 105 42 44 
3 41 40 106 
3 108 41 107 
3 104 39 41 
3 38 37 110 
3 40 38 111 
3 102 36 38 
3 35 34 112 
3 113 35 30 
3 115 33 35 
3 32 31 116 
3 118 32 117 
3 114 30 32 
3 29 28 120 
3 31 29 121 
3 112 27 29 
3 26 25 122 
3 123 26 21 
3 125 24 26 
3 23 22 126 
3 128 23 127 
3 124 21 23 
3 20 19 130 
3 22 20 131 
3 122 18 20 
3 17 16 132 
3 25 17 18 
3 133 15 17 
3 14 13 134 
3 34 14 27 
3 135 12 14 
3 11 10 136 
3 43 11 36 
3 137 9 11 
3 8 7 138 
3 52 8 45 
3 139 6 8 
3 5 4 140 
3 61 5 54 
3 141 3 5 
3 2 1 142 
3 70 2 63 
3 143 0 2 
