ply
format ascii 1.0
comment VCGLIB generated
element vertex 25
property float x
property float y
property float z
property float nx
property float ny
property float nz
element face 32
property list uchar int vertex_indices
end_header
799.9999 3.496911e-05 -800 0 -640000.1 -0.02797529 
400 1.748456e-05 -400 0 -640000.1 -0.02797529 
400 3.496911e-05 -800 0 -640000.1 -0.02797529 
799.9999 1.748456e-05 -400 0 -640000.1 -0.02797529 
0 0 0 0 -640000.1 -0.02797529 
0 -1.748456e-05 400 0 -640000.1 -0.02797529 
-400 -1.748456e-05 400 0 -640000.1 -0.02797529 
400 0 0 0 -640000.1 -0.02797529 
799.9999 0 0 0 -640000.1 -0.02797529 
799.9999 -1.748456e-05 400 0 -640000.1 -0.02797529 
400 -1.748456e-05 400 0 -640000.1 -0.02797529 
0 3.496911e-05 -800 0 -640000.1 -0.02797529 
-400 1.748456e-05 -400 0 -640000.1 -0.02797529 
-400 3.496911e-05 -800 0 -640000.1 -0.02797529 
0 1.748456e-05 -400 0 -640000.1 -0.02797529 
-400 0 0 0 -640000.1 -0.02797529 
-799.9999 -1.748456e-05 400 0 -640000.1 -0.02797529 
-799.9999 0 0 0 -640000.1 -0.02797529 
-799.9999 -3.496911e-05 800 0 -640000.1 -0.02797529 
-799.9999 1.748456e-05 -400 0 -640000.1 -0.02797529 
-799.9999 3.496911e-05 -800 0 -640000.1 -0.02797529 
400 -3.496911e-05 800 0 -640000.1 -0.02797529 
0 -3.496911e-05 800 0 -640000.1 -0.02797529 
799.9999 -3.496911e-05 800 0 -640000.1 -0.02797529 
-400 -3.496911e-05 800 0 -640000.1 -0.02797529 
3 0 1 2 
3 0 3 1 
3 4 5 6 
3 4 7 5 
3 8 9 10 
3 11 12 13 
3 11 14 12 
3 4 6 15 
3 15 16 17 
3 15 6 16 
3 6 18 16 
3 12 15 17 
3 12 14 15 
3 14 4 15 
3 13 19 20 
3 13 12 19 
3 12 17 19 
3 10 21 22 
3 10 9 21 
3 9 23 21 
3 5 10 22 
3 5 7 10 
3 7 8 10 
3 6 24 18 
3 6 5 24 
3 5 22 24 
3 1 7 4 
3 1 3 7 
3 3 8 7 
3 2 14 11 
3 2 1 14 
3 1 4 14 
